<?xml version="1.0" standalone="no"?><!DOCTYPE svg PUBLIC "-//W3C//DTD SVG 1.1//EN" "http://www.w3.org/Graphics/SVG/1.1/DTD/svg11.dtd"><svg t="1588067398049" class="icon" viewBox="0 0 1024 1024" version="1.1" xmlns="http://www.w3.org/2000/svg" p-id="6900" xmlns:xlink="http://www.w3.org/1999/xlink" width="16" height="16"><defs><style type="text/css"></style></defs><path d="M827.3 219.5h-626c-19.8 0-35.8 16-35.8 35.8v78c0 19.8 16 35.8 35.8 35.8h34.2v374.2c0 93 75.4 168.4 168.4 168.4h217c93 0 168.4-75.4 168.4-168.4V369.2h37.4c19.8 0 35.8-16 35.8-35.8v-78c0.6-19.9-15.5-35.9-35.2-35.9zM423.5 727.8c0 24.6-19.8 44.9-44.9 44.9-24.6 0-44.9-20.3-44.9-44.9V473.9c0-24.6 20.3-44.9 44.9-44.9s44.9 19.8 44.9 44.9v253.9z m135.4 0c0 24.6-19.8 44.9-44.9 44.9-25.1 0-44.9-20.3-44.9-44.9V473.9c0-24.6 20.3-44.9 44.9-44.9 24.6 0 44.9 19.8 44.9 44.9v253.9z m135.4 0c0 24.6-19.8 44.9-44.9 44.9-25.1 0-44.9-20.3-44.9-44.9V473.9c0-24.6 20.3-44.9 44.9-44.9 24.6 0 44.9 19.8 44.9 44.9v253.9zM556.8 115.3h-85.5c-40.6 0-73.8 32.1-75.9 72.2h237.3c-1.6-40.2-34.7-72.2-75.9-72.2z" p-id="6901"></path></svg>