<?xml version="1.0" standalone="no"?><!DOCTYPE svg PUBLIC "-//W3C//DTD SVG 1.1//EN" "http://www.w3.org/Graphics/SVG/1.1/DTD/svg11.dtd"><svg t="1588075397270" class="icon" viewBox="0 0 1024 1024" version="1.1" xmlns="http://www.w3.org/2000/svg" p-id="7780" xmlns:xlink="http://www.w3.org/1999/xlink" width="16" height="16"><defs><style type="text/css"></style></defs><path d="M950.221 902.552L679.275 631.606c49.481-60.042 79.2-136.978 79.2-220.856 0-191.919-155.582-347.5-347.5-347.5-191.919 0-347.5 155.581-347.5 347.5 0 191.918 155.581 347.5 347.5 347.5 84.273 0 161.538-30.002 221.702-79.903l270.874 270.874c12.888 12.887 33.782 12.887 46.67 0 12.886-12.888 12.886-33.783 0-46.669zM98.476 410.75c0-172.589 139.911-312.5 312.5-312.5 172.588 0 312.5 139.911 312.5 312.5 0 172.588-139.912 312.5-312.5 312.5-172.59 0-312.5-139.911-312.5-312.5z" fill="#707070" p-id="7781"></path></svg>